<?xml version="1.0" standalone="no"?><!DOCTYPE svg PUBLIC "-//W3C//DTD SVG 1.1//EN" "http://www.w3.org/Graphics/SVG/1.1/DTD/svg11.dtd"><svg t="1578748804061" class="icon" viewBox="0 0 1024 1024" version="1.1" xmlns="http://www.w3.org/2000/svg" p-id="7232" xmlns:xlink="http://www.w3.org/1999/xlink" width="200" height="200"><defs><style type="text/css"></style></defs><path d="M824 92H664V48c0-26.5-21.5-48-48-48H408c-26.5 0-48 21.5-48 48v44H200c-39.7 0-72 32.3-72 72v724c0 39.7 32.3 72 72 72h624c39.7 0 72-32.3 72-72V164c0-39.7-32.3-72-72-72zM653.8 567.7c19.9 0 36 16.1 36 36s-16.1 36-36 36H548V722c0 19.9-16.1 36-36 36s-36-16.1-36-36v-82.3H370.2c-19.9 0-36-16.1-36-36s16.1-36 36-36H476V506H370.2c-19.9 0-36-16.1-36-36s16.1-36 36-36h58.1l-20.9-60.1c-6.5-18.8 3.4-39.3 22.2-45.8s39.3 3.4 45.8 22.2l29.1 83.7h14.9l29.1-83.7c6.5-18.8 27-28.7 45.8-22.2 18.8 6.5 28.7 27 22.2 45.8L595.6 434h58.1c19.9 0 36 16.1 36 36s-16.1 36-36 36H548v61.7h105.8z" p-id="7233"></path></svg>