<?xml version="1.0" standalone="no"?><!DOCTYPE svg PUBLIC "-//W3C//DTD SVG 1.1//EN" "http://www.w3.org/Graphics/SVG/1.1/DTD/svg11.dtd"><svg t="1578748757026" class="icon" viewBox="0 0 1024 1024" version="1.1" xmlns="http://www.w3.org/2000/svg" p-id="6328" xmlns:xlink="http://www.w3.org/1999/xlink" width="200" height="200"><defs><style type="text/css"></style></defs><path d="M924 64H100c-19.9 0-36 16.1-36 36v824c0 19.9 16.1 36 36 36h824c19.9 0 36-16.1 36-36V100c0-19.9-16.1-36-36-36zM724 731c0 19.9-16.1 36-36 36H336c-19.9 0-36-16.1-36-36s16.1-36 36-36h352c19.9 0 36 16.1 36 36z m0-219c0 19.9-16.1 36-36 36H336c-19.9 0-36-16.1-36-36s16.1-36 36-36h352c19.9 0 36 16.1 36 36z m0-219c0 19.9-16.1 36-36 36H336c-19.9 0-36-16.1-36-36s16.1-36 36-36h352c19.9 0 36 16.1 36 36z" p-id="6329"></path></svg>