<?xml version="1.0" standalone="no"?><!DOCTYPE svg PUBLIC "-//W3C//DTD SVG 1.1//EN" "http://www.w3.org/Graphics/SVG/1.1/DTD/svg11.dtd"><svg t="1578749074063" class="icon" viewBox="0 0 1142 1024" version="1.1" xmlns="http://www.w3.org/2000/svg" p-id="10531" xmlns:xlink="http://www.w3.org/1999/xlink" width="223.046875" height="200"><defs><style type="text/css"></style></defs><path d="M657.36309998 191.87690146v-104.11305359c0-6.34835783-1.26967099-13.9663839-2.53934202-20.31474172h21.58441278v-38.09014146h93.95568263v-40.6294835h-93.95568263v-15.23605768H440.24929588v93.95568264h21.58441276c-1.26967099 6.34835783-2.53934201 12.69671286-2.53934202 20.31474172v2.53934203h-46.97784133v-5.078684c0-19.04507074-15.23605771-34.28112846-35.55079663-34.28112846-19.04507074 0-35.55079946 15.23605771-35.55079942 34.28112846v86.33765381c0 19.04507074 15.23605771 34.28112846 35.55079942 34.28112563 19.04507074 0 35.55079946-15.23605771 35.55079663-34.28112563v-5.07868688h46.97784133v25.39342863c-92.68601167 29.20244158-158.70892091 159.97859189-158.7089209 261.55230338v533.26197484c0 31.74178361 25.39342855 57.13521221 57.13521221 57.13521217h401.21615357c31.74178361 0 57.13521221-25.39342855 57.1352122-57.13521217v-533.26197484c0-101.57370869-67.29258308-232.34986177-158.70892372-261.55230338z m-159.9785919 493.90216233c-64.75324109 0-109.19173755-49.51718332-109.19173754-120.61877939 0-72.37126713 45.70817036-124.42779523 111.73107954-124.42779528 64.75324109 0 109.19173755 49.51718332 109.19173757 120.61878223 1.26967099 86.33765379-55.86554122 124.42779523-111.73107957 124.42779244z m231.08019077 64.75324108h-118.07943737v-36.82047043l19.04506791-19.04507075c27.93277059-26.66309961 41.8991545-41.8991545 41.89915729-53.32619635 0-5.07868684 0-6.34835783-6.34835785-6.34835789s-12.69671286 3.80901297-15.23605487 6.34835789l-19.04507076 15.23605483-21.58441555-46.97783848 11.42704469-8.88769986c12.69671286-11.4270419 30.47211262-17.77539973 48.24751232-17.77539973 39.35981247 0 57.13521221 29.20244158 57.13520942 55.8655412 0 22.85408377-11.4270419 40.62948347-27.9327678 58.40488316h30.47211257v53.32619641z" p-id="10532"></path><path d="M499.92385008 500.40704334c-34.28112846 0-45.70817036 35.55079946-45.70816746 64.75324106 0 30.47211262 13.9663839 62.21389622 45.70816746 62.21389901s45.70817036-33.01145461 45.70817032-64.75324102c0-21.5844127-10.15737088-62.21389622-45.70817032-62.21389905z" p-id="10533"></path></svg>